<?xml version="1.0" encoding="utf-8"?>
<!DOCTYPE svg PUBLIC "-//W3C//DTD SVG 1.1//EN" "http://www.w3.org/Graphics/SVG/1.1/DTD/svg11.dtd">
<svg xmlns="http://www.w3.org/2000/svg" xmlns:xlink="http://www.w3.org/1999/xlink" version="1.1" baseProfile="full" width="500" height="500" viewBox="0 0 500.00 500.00" enable-background="new 0 0 500.00 500.00" xml:space="preserve">
	<g>
		<path fill="#0D0557" fill-opacity="1" stroke-width="0.2" stroke-linejoin="round" d="M 165.031,25.2714L 159.599,25.2714L 151.081,40.9113L 165.031,40.9113L 165.031,25.2714 Z "/>
		<path fill="#0D0557" fill-opacity="1" stroke-width="0.2" stroke-linejoin="round" d="M 164.599,57.901L 142.315,57.901L 133.179,73.5409L 164.599,73.5409L 164.599,57.901 Z "/>
		<path fill="#0D0557" fill-opacity="1" stroke-width="0.2" stroke-linejoin="round" d="M 164.445,89.631L 124.778,89.631L 115.031,105.271L 164.445,105.271L 164.445,89.631 Z "/>
	</g>
	<g>
		<path fill="#0D0557" fill-opacity="1" stroke-width="0.2" stroke-linejoin="round" d="M 334.969,25.2709L 340.401,25.2709L 348.919,40.9108L 334.969,40.9108L 334.969,25.2709 Z "/>
		<path fill="#0D0557" fill-opacity="1" stroke-width="0.2" stroke-linejoin="round" d="M 335.401,57.901L 357.685,57.901L 366.821,73.5409L 335.401,73.5409L 335.401,57.901 Z "/>
		<path fill="#0D0557" fill-opacity="1" stroke-width="0.2" stroke-linejoin="round" d="M 335.555,89.631L 375.222,89.631L 384.969,105.271L 335.555,105.271L 335.555,89.631 Z "/>
	</g>
	<path fill="#0D0557" fill-opacity="1" stroke-width="0.2" stroke-linejoin="round" d="M 170.016,25.2709L 220.016,25.2709L 220.016,41.8746L 203.887,41.8746L 203.887,105.271L 196.452,105.271L 194.687,100.16L 192.815,105.229L 185.499,105.271L 185.499,41.8746L 170.016,41.8746L 170.016,25.2709 Z "/>
	<path fill="#0D0557" fill-opacity="1" fill-rule="evenodd" stroke-width="0.2" stroke-linejoin="round" d="M 250,25.2709L 263.277,25.2709L 275,36.0984L 275,94.4062L 263.15,105.271L 250,105.271L 236.85,105.271L 225,94.4062L 225,36.0984L 236.723,25.2709L 250,25.2709 Z M 250,90.2333L 256.513,90.2334L 256.513,40.3086L 250,40.3085L 243.487,40.3085L 243.487,90.2333L 250,90.2333 Z "/>
	<path fill="#0D0557" fill-opacity="1" fill-rule="evenodd" stroke-width="0.2" stroke-linejoin="round" d="M 298.692,41.5727L 310.597,41.5727L 310.597,58.4784L 298.692,58.4784L 298.692,41.5727 Z M 279.984,25.2709L 319.057,25.2709L 329.984,37.5727L 329.984,63.8368L 318.716,75.3841L 298.012,75.3841L 298.012,105.271L 279.984,105.271L 279.984,75.3841L 279.984,75.0822L 279.984,25.2709 Z "/>
	<path fill="#0D0557" fill-opacity="1" fill-rule="evenodd" stroke-width="0.2" stroke-linejoin="round" d="M 133.748,123.791L 133.748,174.665L 145.913,174.665L 145.913,162.201L 165.031,162.201L 165.031,178.608L 152.063,189.292L 140.031,189.292L 127.999,189.292L 115.031,178.608L 115.031,119.848L 127.999,109.292L 140.031,109.292L 152.063,109.292L 165.031,119.848L 165.031,131.549L 145.913,131.549L 145.913,123.791L 133.748,123.791 Z "/>
	<path fill="#0D0557" fill-opacity="1" stroke-width="0.2" stroke-linejoin="round" d="M 154.562,134.682L 236.813,134.682L 169.437,177.932L 194.687,109.182L 218.562,178.307L 154.562,134.682 Z "/>
	<path fill="#0D0557" fill-opacity="1" fill-rule="evenodd" stroke-width="0.2" stroke-linejoin="round" d="M 225,149.292L 225,145.421L 243.833,132.171L 225,132.171L 225,109.292L 244.433,109.292L 255.882,143.71L 255.882,109.292L 275,109.292L 275,149.292L 275,189.292L 255.567,189.292L 244.118,154.874L 244.118,189.292L 225,189.292L 225,149.292 Z "/>
	<path fill="#0D0557" fill-opacity="1" stroke-width="0.2" stroke-linejoin="round" d="M 279.984,109.292L 329.984,109.292L 329.984,125.896L 313.855,125.896L 313.855,189.292L 307.928,189.292L 300.751,189.292L 295.468,189.292L 295.468,125.896L 279.984,125.896L 279.984,109.292 Z "/>
	<path fill="#0D0557" fill-opacity="1" stroke-width="0.2" stroke-linejoin="round" d="M 353.719,124.035L 353.719,141.728L 361.531,141.728L 364.917,141.728L 384.969,141.728L 384.969,149.292L 359.969,149.292L 334.969,149.292L 334.969,119.933L 349.031,109.292L 359.969,109.292L 370.907,109.292L 384.969,119.933L 384.969,132.753L 364.917,132.753L 364.917,124.035L 353.719,124.035 Z M 366.219,174.548L 366.219,156.856L 358.406,156.856L 355.021,156.856L 334.969,156.856L 334.969,149.292L 359.969,149.292L 384.969,149.292L 384.969,178.65L 370.907,189.292L 359.969,189.292L 349.031,189.292L 334.969,178.65L 334.969,165.83L 355.021,165.83L 355.021,174.548L 366.219,174.548 Z "/>
	<image x="0" y="0" width="139" height="169" transform="matrix(1.15,0.00,0.00,1.20,105.47,201.12)" xlink:href="images/tc-logo_files/image0.png"/>
	<image x="0" y="0" width="115" height="145" transform="matrix(1.15,0.00,0.00,1.15,90.14,333.56)" xlink:href="images/tc-logo_files/image1.png"/>
	<image x="0" y="0" width="124" height="154" transform="matrix(1.22,0.00,0.00,1.21,265.47,200.84)" xlink:href="images/tc-logo_files/image2.png"/>
	<image x="0" y="0" width="135" height="180" transform="matrix(0.88,0.00,0.00,0.88,198.14,342.01)" xlink:href="images/tc-logo_files/image3.png"/>
	<image x="0" y="0" width="115" height="160" transform="matrix(0.87,0.00,0.00,0.87,312.47,361.47)" xlink:href="images/tc-logo_files/image4.png"/>
</svg>
