<?xml version="1.0" encoding="utf-8"?>
<!DOCTYPE svg PUBLIC "-//W3C//DTD SVG 1.1//EN" "http://www.w3.org/Graphics/SVG/1.1/DTD/svg11.dtd">
<svg xmlns="http://www.w3.org/2000/svg" xmlns:xlink="http://www.w3.org/1999/xlink" version="1.1" baseProfile="full" width="100" height="100" viewBox="0 0 100.00 100.00" enable-background="new 0 0 100.00 100.00" xml:space="preserve">
	<path fill="#E8A890" fill-opacity="1" stroke-width="0.5" stroke-linejoin="round" stroke="#000000" stroke-opacity="1" d="M 27.3596,28.9644C 27.4846,29.7144 27.4019,29.9453 27.4846,30.1831C 27.5672,30.421 27.6388,31.121 27.6721,31.3706C 27.8596,32.7769 28.1008,33.7542 28.3283,34.6831C 28.8283,36.7248 28.9475,37.6826 29.5783,39.6831C 29.8786,40.6353 30.2109,41.1101 30.6721,41.9956C 30.8181,42.276 30.9435,42.3111 31.1408,42.5581C 31.3349,42.8011 31.2152,42.7286 31.5158,42.8081C 31.8298,42.8912 31.392,40.0666 31.4533,37.4956C 31.4796,36.3937 31.1086,34.2085 31.4221,33.1519C 31.484,32.9429 31.9308,31.54 32.0158,31.3394C 32.094,31.1549 32.3233,30.7584 32.3283,30.5581C 32.3333,30.3578 32.65,29.8138 32.7033,29.6206C 33.2033,27.8081 33.6316,25.767 34.2033,23.6206C 34.5601,22.2811 34.7121,22.1552 34.8596,20.7769C 34.8937,20.4582 35.2283,19.1598 35.2346,18.8394C 35.2408,18.5189 35.5089,17.7999 35.6096,17.4956C 35.8456,16.7818 35.9983,16.4356 36.2971,15.7456C 36.4244,15.4515 36.673,15.1037 36.7971,14.8081C 37.0865,14.1184 37.5409,13.2608 37.7971,12.5581C 38.3078,11.1572 38.4529,10.7873 39.1408,9.46436C 39.3144,9.13055 39.8422,8.26693 40.0158,7.93311C 40.1894,7.5993 40.3817,7.26841 40.6408,6.99561C 41.4055,6.19061 42.6787,5.61362 43.7658,5.83936C 45.0842,6.11315 46.7852,7.14404 47.2658,8.40186C 47.3961,8.74291 47.7395,9.47884 47.7971,9.83936C 47.8546,10.1999 47.8957,11.4476 47.9533,11.8081C 48.0158,12.8394 47.7971,14.0581 47.5158,14.8394C 47.3884,15.1934 46.5324,18.077 46.2971,18.3706C 46.1577,18.5445 45.7192,20.0508 45.6408,20.4331C 45.3908,21.6519 45.0158,23.0581 44.7658,24.3394C 44.5059,25.6714 44.1985,27.5571 44.0158,28.9019C 43.6084,31.9008 43.1096,33.5894 43.1408,35.6206C 43.1468,36.0081 43.039,37.3325 43.0532,37.7197C 43.0674,38.1069 42.9859,38.5098 43.0957,38.8814C 43.1576,39.0904 43.5158,39.3706 43.7658,39.5269C 44.038,39.697 44.2033,39.8394 44.2033,39.6206C 44.2033,39.4331 44.2431,39.1374 44.3596,38.7456C 44.476,38.3538 44.5128,37.8366 44.5783,37.4331C 44.6329,37.097 44.7027,35.674 44.7658,35.3394C 45.0783,33.6831 45.1721,31.4019 45.5158,29.3081C 45.9026,26.9521 46.9991,23.5431 48.7033,19.4956C 48.9533,18.9019 49.3596,16.1519 49.7658,13.0581C 49.9942,11.319 50.9583,9.41772 51.5783,7.77686C 52.2086,6.10877 52.7428,3.9562 53.7658,2.49561C 54.6281,1.26449 57.5131,1.20541 58.8283,1.93311C 60.5047,2.86069 63.0708,5.97485 62.2033,7.68311C 61.4543,9.15799 61.7233,11.2411 61.2971,12.8394C 61.1721,13.3081 60.3596,15.7456 60.2971,16.3706C 60.1951,17.39 59.7971,18.8706 59.8596,19.7456C 59.8835,20.0806 59.7301,21.0358 59.7033,21.3706C 59.6752,21.7224 59.7158,22.8017 59.6721,23.1519C 59.4846,24.6519 59.2353,25.5967 59.1408,26.9956C 59.07,28.0438 58.9221,28.9331 58.8283,29.9956C 58.7514,30.8671 57.9852,33.4884 57.9846,33.7769C 57.9839,34.0656 57.7176,35.898 57.6721,36.1831C 57.5262,37.0959 57.4835,37.5795 57.3596,38.4956C 57.0426,40.8389 56.4847,42.0762 57.2658,44.3081C 57.4846,44.9331 57.505,44.854 57.8908,44.9956C 58.1957,45.1075 58.2465,44.621 58.4533,44.3706C 59.0471,43.6519 59.6872,42.9806 59.8283,42.8081C 60.1096,42.4644 61.0545,41.3223 61.7658,40.4331C 62.9923,38.9 64.285,37.2182 65.9533,36.1831C 66.1419,36.0661 66.8267,35.8344 67.0471,35.8081C 67.2674,35.7818 67.6754,35.7052 67.8908,35.6519C 68.9152,35.3981 69.7417,35.0269 70.7971,35.0269C 72.7033,35.0269 74.6271,35.4226 76.1721,36.3706C 77.0495,36.909 78.5006,37.5882 79.2658,38.2769C 79.5783,38.5581 79.9957,39.0766 80.0471,39.2769C 80.0984,39.4771 79.8538,40.703 79.7971,40.9019C 79.7459,41.0813 79.5194,41.4703 79.4533,41.6831C 79.3856,41.9011 79.2606,42.1511 79.1356,42.6511C 79.0295,43.0756 79.0419,43.2136 79.0106,43.7449C 78.9632,44.5515 78.8544,45.0261 78.8544,45.3386C 78.8544,46.5721 78.6809,46.4177 78.6669,47.6511C 78.6596,48.2919 79.1669,48.6824 79.4481,49.2136C 79.8763,50.0225 79.9613,50.9198 80.4169,51.7136C 80.8925,52.5424 81.2245,53.1561 81.5419,54.0574C 81.8601,54.9611 82.1669,56.1824 82.1669,57.0574C 82.1669,57.2533 82.1981,57.7449 82.2294,58.1824C 82.2381,58.3043 82.0731,59.9636 81.7606,60.6824C 81.3155,61.706 81.4169,61.6824 81.0731,62.4949C 80.8856,63.1824 80.887,63.6329 80.8231,64.4949C 80.7606,65.3386 80.2294,66.6824 79.6981,67.4949C 79.1652,68.31 78.9794,68.8074 78.8544,69.7761C 78.6853,71.086 78.4318,73.6002 78.0731,74.9324C 77.8544,75.7449 77.4169,77.3074 76.9481,77.9636C 76.2997,78.8714 76.0627,79.327 75.3856,80.2136C 75.0804,80.6133 74.5799,81.6344 74.2294,81.9949C 73.8788,82.3554 73.3373,83.3692 73.0419,83.7761C 72.0643,85.1228 71.5106,85.9949 70.3856,87.3074C 69.7827,88.0107 69.6865,88.6983 68.9481,89.5886C 67.8856,90.8699 66.9574,92.2487 66.1356,93.1199C 65.1729,94.1404 64.5106,95.7761 63.8231,96.8386C 63.3387,97.5872 62.0796,100.339 62.2294,100.526C 63.1146,101.632 54.3856,100.464 53.168,100.531C 50.898,100.505 48.628,100.478 46.358,100.451C 45.223,100.438 43.9957,100.86 42.953,100.411C 42.7484,100.323 43.3088,100.789 43.1512,100.631C 43.0464,100.526 43.1273,100.671 42.9846,100.631L 42.7346,100.756C 42.4942,100.698 42.8073,100.904 42.6096,100.756C 42.4499,100.636 42.4397,100.855 42.3596,100.673L 41.9429,100.714L 41.4429,100.506C 41.2426,100.626 40.8997,100.299 40.7346,100.464C 40.645,100.554 40.1913,100.511 40.1512,100.631C 38.6771,100.679 38.1254,100.541 36.6512,100.589C 35.5247,100.626 34.4281,101.228 33.7346,100.339C 33.1199,100.656 33.0613,100.216 32.4012,100.423L 31.5138,100.411L 22.1512,100.506C 22.0311,99.6649 22.8659,98.4799 22.9012,97.631C 22.9429,96.631 23.1096,95.4227 23.1096,94.7977C 23.1096,93.6536 23.3182,93.0292 23.4846,92.881C 23.6627,92.7224 23.7613,91.3021 23.9012,89.881C 23.9338,89.5505 23.5858,88.2483 23.6512,87.9227C 23.7092,87.6339 23.0707,85.8805 23.0262,85.5894C 22.9041,84.7899 22.9429,84.9644 22.7762,84.256C 22.4025,82.6676 22.7346,84.131 22.1512,81.881C 21.7549,80.3523 22.0673,80.4749 21.7762,78.9227C 21.7319,78.6864 21.6096,78.5477 21.5262,77.4227C 21.5085,77.1829 21.5684,76.8147 21.4846,76.5894C 21.4098,76.3882 21.4429,76.381 21.4429,75.6727C 21.4429,74.3106 21.4012,74.006 21.3596,72.756C 21.3525,72.5449 21.3179,71.9644 21.3596,71.256C 21.4276,70.0999 21.4975,69.3307 21.4846,68.1727C 21.45,65.0845 21.4846,62.7144 21.1408,59.1519C 20.953,57.2055 20.7442,55.1983 20.6408,53.2456C 20.4625,49.8792 20.1122,47.8266 19.4221,44.5269C 19.1582,43.2652 18.8908,43.4019 18.2971,40.6206C 18.119,39.7864 18.1935,37.0879 18.3283,36.2456C 18.4533,35.4644 18.5935,34.2042 18.2658,32.9644C 18.215,32.7722 18.1507,31.9442 18.1408,31.7456C 18.0733,30.3954 17.9674,29.7635 17.9533,28.6519C 17.9298,26.7991 17.9455,26.9421 17.9221,25.0894L 17.9846,22.9956L 18.2346,21.6831C 18.3179,20.7248 18.2435,20.0452 18.6408,18.6519C 18.6962,18.4578 19.0163,17.7814 19.0783,17.5894C 19.1773,17.2828 19.5555,16.99 19.7971,16.7769C 20.3283,16.3081 21.6994,15.8565 22.7346,15.9644C 23.8246,16.0779 25.4485,17.0268 26.0158,17.9644C 26.771,19.2123 27.4369,21.4473 27.3283,22.9019C 27.2436,24.037 27.4228,24.833 27.2971,25.9644C 27.1714,27.0957 27.3559,29.0019 27.3596,28.9644 Z "/>
	<path fill="none" stroke-width="0.25" stroke-linejoin="round" stroke="#000000" stroke-opacity="1" d="M 79.2502,42.2489C 78.797,42.0735 77.0624,41.6192 76.4377,41.6655C 75.8752,41.7072 74.7085,41.9572 74.3544,42.1655C 73.7753,42.5062 72.3544,43.0614 71.6877,43.853C 71.2684,44.3509 70.7085,45.6447 70.3752,46.2697C 70.0419,46.8947 69.4681,48.0423 69.2085,48.5614C 68.896,49.1864 68.5835,50.2697 68.396,51.0197C 68.2195,51.7256 68.146,52.8322 68.146,53.5405C 68.146,54.2489 68.1877,54.5614 68.2294,55.5197C 68.2759,56.5899 68.6669,57.2803 68.6669,57.6239C 68.6669,58.0405 68.3266,58.4896 67.9794,58.8947C 67.4794,59.478 67.021,60.1864 66.8544,60.8739C 66.7357,61.3632 66.6877,61.4989 66.5627,62.4155C 66.4377,63.3322 66.5627,64.2072 66.9377,65.2905C 67.3127,66.3739 67.646,66.8739 68.0627,68.0405C 68.4794,69.2072 69.021,70.7489 69.146,71.1655C 69.271,71.5822 69.4377,72.9989 69.7294,73.6239"/>
	<path fill="none" stroke-width="0.2" stroke-linejoin="round" stroke="#000000" stroke-opacity="1" d="M 45.4377,65.6239C 46.6877,64.7489 47.6877,64.0822 49.1877,63.4989C 50.6877,62.9155 51.146,62.8739 53.396,62.2905C 55.646,61.7072 55.9377,61.7905 57.771,61.5822C 59.6044,61.3739 60.521,61.1655 61.146,61.1655C 61.771,61.1655 62.3544,61.3739 63.146,61.2072C 63.9377,61.0405 64.6877,60.7072 65.271,60.5405C 65.8544,60.3739 66.4377,60.3739 66.4377,60.3739"/>
	<path fill="none" stroke-width="0.2" stroke-linejoin="round" stroke="#000000" stroke-opacity="1" d="M 54.3544,89.9572C 53.6877,88.7905 52.896,87.8322 52.3544,86.8322C 51.8127,85.8322 51.4794,84.8322 51.0627,83.2905C 50.646,81.7489 50.1877,80.4572 50.3127,77.4989C 50.4377,74.5405 50.3127,72.6655 51.6877,70.1655C 53.0627,67.6655 54.646,66.4155 55.521,65.9155"/>
	<path fill="none" stroke-width="0.2" stroke-linejoin="round" stroke="#000000" stroke-opacity="1" d="M 22.396,61.4989C 23.9794,61.6239 28.1877,61.4572 30.9794,60.9572C 33.771,60.4572 38.3127,60.2489 41.1877,59.6655C 44.0627,59.0822 47.3544,57.1239 48.8544,55.7489C 50.3544,54.3739 51.6044,52.7072 51.6044,52.7072"/>
	<path fill="none" stroke-width="0.2" stroke-linejoin="round" stroke="#000000" stroke-opacity="1" d="M 44.3544,64.9989C 44.896,65.9572 45.0627,66.4989 45.396,67.7489C 45.7294,68.9989 46.1044,70.7905 46.021,72.0405C 45.9377,73.2905 45.9794,75.0822 46.021,75.9989"/>
	<path fill="none" stroke-width="0.2" stroke-linejoin="round" stroke="#000000" stroke-opacity="1" d="M 24.3752,90.228C 25.7085,89.4364 27.8752,88.853 29.2502,88.4364"/>
	<path fill="none" stroke-width="0.2" stroke-linejoin="round" stroke="#000000" stroke-opacity="1" d="M 30.0002,95.6447C 31.6669,95.728 32.0835,95.853 34.6669,95.8114C 37.2502,95.7697 37.5002,96.0197 40.0002,96.3114C 42.5002,96.603 44.1669,96.7697 45.9585,96.7697"/>
	<path fill="none" stroke-width="0.2" stroke-linejoin="round" stroke="#000000" stroke-opacity="1" d="M 19.2919,30.3114C 20.5835,29.9364 21.4169,29.6447 22.8335,29.5197C 24.2502,29.3947 24.8335,29.3114 25.5002,29.4364"/>
	<path fill="none" stroke-width="0.2" stroke-linejoin="round" stroke="#000000" stroke-opacity="1" d="M 19.7919,41.2697C 21.2919,40.4364 21.4585,40.3114 22.9169,39.6447C 24.3752,38.978 25.7085,38.5197 26.7085,38.353"/>
	<path fill="none" stroke-width="0.2" stroke-linejoin="round" stroke="#000000" stroke-opacity="1" d="M 21.6669,52.228C 22.8335,51.3114 23.8752,50.0197 25.1252,49.228C 26.3752,48.4364 27.8752,47.728 28.7085,47.478C 29.5419,47.228 30.0835,46.853 30.7085,46.6447"/>
	<path fill="none" stroke-width="0.2" stroke-linejoin="round" stroke="#000000" stroke-opacity="1" d="M 36.6252,44.603C 37.8752,44.1864 39.6669,43.7697 40.7502,43.6447"/>
	<path fill="none" stroke-width="0.2" stroke-linejoin="round" stroke="#000000" stroke-opacity="1" d="M 35.0835,33.3947C 36.5835,33.1447 38.0835,32.9364 39.2085,32.9364C 40.3335,32.9364 41.4585,32.978 42.0002,33.1447"/>
	<path fill="none" stroke-width="0.2" stroke-linejoin="round" stroke="#000000" stroke-opacity="1" d="M 37.0835,20.5197C 38.2085,20.4364 39.7085,20.4364 40.4169,20.603C 41.1252,20.7697 41.7502,21.0614 42.5419,21.4364C 43.3335,21.8114 43.9169,22.228 44.2919,22.478"/>
	<path fill="none" stroke-width="0.2" stroke-linejoin="round" stroke="#000000" stroke-opacity="1" d="M 51.0419,16.1447C 52.0419,16.6447 53.0419,16.978 54.2919,17.3114C 55.5419,17.6447 57.1669,17.9364 58.2085,17.8947"/>
	<path fill="none" stroke-width="0.2" stroke-linejoin="round" stroke="#000000" stroke-opacity="1" d="M 47.7085,28.603C 48.7502,28.978 49.3752,29.3947 50.5835,29.728C 51.7919,30.0614 52.6252,30.5197 53.5835,30.7697C 54.5419,31.0197 54.8752,31.2697 56.0002,31.4364"/>
	<path fill="none" stroke-width="0.2" stroke-linejoin="round" stroke="#000000" stroke-opacity="1" d="M 46.7919,42.2697C 47.9169,42.4364 48.5835,42.5197 49.7919,42.8947C 51.0002,43.2697 51.3752,43.478 53.2919,43.728C 55.2085,43.978 55.5002,43.978 55.7919,43.9364"/>
	<path fill="none" stroke-width="0.2" stroke-linejoin="round" stroke="#000000" stroke-opacity="1" d="M 65.6877,44.9155C 66.5627,45.5405 67.396,46.1239 67.9794,46.4572C 68.5627,46.7905 69.1877,47.0822 69.4794,47.2489"/>
	<path fill="none" stroke-width="0.25" stroke-linejoin="round" stroke="#000000" stroke-opacity="1" d="M 59.6877,47.9364C 60.6877,48.9364 60.9794,49.2697 61.8544,50.103C 62.7294,50.9364 63.521,51.7697 64.4377,52.5197C 65.3544,53.2697 65.7294,53.5197 66.1044,53.728"/>
	<path fill="#F1C1AF" fill-opacity="1" stroke-width="0.2" stroke-linejoin="round" stroke="#000000" stroke-opacity="1" d="M 79.2503,49.1033C 78.6688,49.5055 77.4793,49.9289 76.857,49.8579C 76.2346,49.7868 75.9925,49.4886 76.1308,48.4973C 76.2691,47.506 76.9033,45.8851 77.2986,45.1101C 77.694,44.3351 78.1899,43.7055 78.5255,43.2584C 78.8611,42.8113 79.0624,42.6362 78.98,43.553C 78.8977,44.4698 78.828,44.9304 78.8128,45.4783C 78.7977,46.0261 78.5393,46.8981 78.6253,47.4574C 78.7503,48.2699 78.9066,48.4731 78.9066,48.4731L 79.2503,49.1033 Z "/>
	<path fill="none" stroke-width="0.2" stroke-linejoin="round" stroke="#000000" stroke-opacity="1" d="M 80.5627,62.2905C 79.9377,62.5405 79.146,62.6239 78.6044,62.6655"/>
	<path fill="none" stroke-width="0.2" stroke-linejoin="round" stroke="#000000" stroke-opacity="1" d="M 81.646,57.6655C 80.896,58.1655 80.2294,58.5405 79.521,58.7905C 78.8127,59.0405 78.2294,59.0822 77.9794,59.0405"/>
	<path fill="none" stroke-width="0.2" stroke-linejoin="round" stroke="#000000" stroke-opacity="1" d="M 68.0627,62.5405C 68.771,62.9155 68.6044,63.1655 69.896,63.4155C 71.1877,63.6655 73.0627,63.9572 73.6877,63.8322"/>
	<path fill="none" stroke-width="0.2" stroke-linejoin="round" stroke="#000000" stroke-opacity="1" d="M 68.6044,60.7072C 69.396,61.2072 69.5627,61.7072 70.396,61.9989C 71.2294,62.2905 71.646,62.5405 72.3544,62.6239"/>
	<path fill="none" stroke-width="0.2" stroke-linejoin="round" stroke="#000000" stroke-opacity="1" d="M 69.6044,59.0405C 70.4377,59.4155 70.396,59.4989 71.771,59.9989C 73.146,60.4989 74.021,60.5822 74.521,60.5405"/>
	<path fill="#BD866E" fill-opacity="1" stroke-width="0.2" stroke-linejoin="round" d="M 66.021,54.7489C 65.7294,55.1655 65.521,55.3322 65.3127,55.6239C 65.1044,55.9155 64.8127,56.2489 64.5627,56.6239C 64.3127,56.9989 64.2294,57.3739 64.2294,57.8322C 64.2294,58.2905 64.1877,58.6655 64.146,59.0822C 64.1044,59.4989 64.1877,59.7072 64.021,60.0405C 63.8544,60.3739 64.146,60.7072 63.3544,60.8322C 62.5627,60.9572 62.6877,60.9989 62.0627,60.7905C 61.4377,60.5822 61.3127,60.3739 61.271,60.5405C 61.2294,60.7072 60.896,60.9572 61.3127,61.1239C 61.7294,61.2905 61.396,61.5405 62.146,61.4155C 62.896,61.2905 63.646,61.1239 63.9794,61.0405C 64.3127,60.9572 64.3544,60.8739 64.771,60.8739C 65.1877,60.8739 66.0627,60.7905 66.2294,60.9572C 66.396,61.1239 66.646,61.4989 66.646,61.4989C 66.646,61.4989 66.896,61.0822 66.896,60.8322C 66.896,60.5822 66.9377,60.3739 67.1877,59.9572C 67.4377,59.5405 67.7294,59.4155 68.0627,58.9572C 68.396,58.4989 68.4794,58.4989 68.6044,58.0822C 68.7294,57.6655 68.771,57.4572 68.6044,56.9989C 68.4377,56.5405 68.4377,55.9572 68.3544,55.5405C 68.271,55.1239 68.3544,54.4572 68.271,53.9155C 68.1877,53.3739 68.1877,52.3739 68.271,51.7905C 68.3544,51.2072 68.3752,50.7489 68.646,49.9364C 68.9701,48.9641 69.1044,48.8322 69.5627,47.9572C 70.021,47.0822 70.021,47.0822 70.3127,46.5405C 70.6044,45.9989 70.9377,45.1655 70.9377,45.1655C 70.9377,45.1655 70.646,45.1655 70.2294,44.9572C 69.8127,44.7489 68.771,43.9155 68.6044,43.7072C 68.4377,43.4989 68.1877,43.5822 68.3127,44.0405C 68.4377,44.4989 68.646,44.9572 68.646,44.9572L 69.646,45.6655C 69.646,45.6655 70.396,45.9989 69.521,45.9572C 68.646,45.9155 68.4377,45.7905 67.771,45.4989C 67.1044,45.2072 65.9794,44.6655 65.8127,44.6239C 65.646,44.5822 65.521,44.9155 65.6044,45.1655C 65.6877,45.4155 65.6877,45.6655 65.521,46.0405C 65.3544,46.4155 65.4377,47.2905 65.3127,47.5822C 65.1877,47.8739 65.1877,48.4572 65.2294,48.9989C 65.271,49.5405 65.2294,49.3322 65.8544,49.9155C 66.4794,50.4989 66.9377,50.6239 67.1044,51.0822C 67.271,51.5405 67.4377,52.2489 67.3544,52.7072C 67.271,53.1655 67.3544,53.4572 66.9377,53.5822C 66.521,53.7072 66.4377,53.7072 65.9377,53.4989C 65.4377,53.2905 65.271,53.2072 65.021,52.9572C 64.771,52.7072 65.1877,53.4572 65.1877,53.4572C 65.1877,53.4572 65.6044,53.8322 65.7294,54.0405C 65.8544,54.2489 66.0627,54.7489 66.021,54.7489 Z "/>
	<path fill="none" stroke-width="0.2" stroke-linejoin="round" stroke="#000000" stroke-opacity="1" d="M 63.771,43.4365C 64.3677,43.7112 64.4602,43.7584 64.9615,44.089C 65.4627,44.4196 65.8386,44.6033 66.5905,44.9706"/>
	<path fill="none" stroke-width="0.2" stroke-linejoin="round" stroke="#000000" stroke-opacity="1" d="M 64.771,39.8895C 65.1877,40.4312 65.8544,41.2645 66.271,41.6812C 66.6877,42.0978 67.4377,42.8895 67.9794,43.2645C 68.521,43.6395 68.9794,44.1655 69.3127,44.3947"/>
	<path fill="#F5BCA7" fill-opacity="1" stroke-width="0.2" stroke-linejoin="round" d="M 71.1688,38.2347L 71.0336,38.1145C 71.2505,37.2093 72.4037,36.687 73.317,36.5071C 74.2795,36.3176 75.2968,36.7128 76.2012,37.093C 77.4098,37.6012 79.0099,38.0798 79.4459,39.3162C 79.52,39.5264 79.3326,39.7852 79.153,39.9171C 78.9452,40.0698 78.6498,40.0298 78.3981,40.0861C 78.1465,40.1424 77.8993,40.2243 77.6433,40.2551C 77.3249,40.2934 77.0025,40.3005 76.6819,40.2927C 75.3955,40.2613 74.0256,40.4461 72.8363,39.9547C 72.0983,39.6497 71.5945,38.9102 71.1688,38.2347 Z "/>
</svg>
