<svg xmlns="http://www.w3.org/2000/svg" width="100" height="100" viewBox="0 0 100 100">
    <path fill="#965D25" d="M100 93c0 3.313-2.687 6-6 6h-88c-3.313 0-6-2.687-6-6v-73h100v73z"/>
    <rect x="4" fill="#523314" width="92" height="20"/>
    <polygon fill="#965D25" points="96,20 88,20 88,8 96,0"/>
    <polygon fill="#965D25" points="4,20 12,20 12,8 4,0"/>
    <polygon fill="#d08740" points="12,8 12,20 0,20"/>
    <polygon fill="#d08740" points="88,8 88,20 100,20"/>
    <circle opacity=".3" cx="26" cy="40" r="5"/>
    <circle opacity=".3" cx="74" cy="40" r="5"/>
    <path clip-rule="evenodd" stroke="#fff" stroke-width="6" stroke-linecap="round" stroke-miterlimit="10" d="M74 40c0 13.254-10.745 24-24 24s-24-10.745-24-24" fill="none"/>
</svg>